<svg id="Layer_1" data-name="Layer 1" xmlns="http://www.w3.org/2000/svg" viewBox="0 0 184.24 184.24"><defs><style>.cls-1{fill:#fff;}.cls-2{fill:#363636;}</style></defs><title>bbd-white</title><polygon class="cls-1" points="147.53 99.19 160.21 116.53 162.82 116.53 162.82 94.79 160.11 94.79 160.11 111.77 147.59 94.79 144.83 94.79 144.83 116.53 147.53 116.53 147.53 99.19"/><path class="cls-1" d="M150.79,35.1h4.33l5.54,8.64h3.19L158,34.87a6,6,0,0,0,5.64-6.32c0-4-2.83-6.55-6.81-6.55h-8.73V43.74h2.7Zm0-10.69h5.71a4.16,4.16,0,1,1,0,8.31h-5.71Z" transform="translate(0)"/><polygon class="cls-1" points="137.46 41.33 125.92 41.33 125.92 33.83 137.23 33.83 137.23 31.42 125.92 31.42 125.92 24.41 137.46 24.41 137.46 22 123.21 22 123.21 43.74 137.46 43.74 137.46 41.33"/><path class="cls-1" d="M125.56,117a11.31,11.31,0,0,0,8.54-3.75v-7.86H123.93v2.41h7.46v4.43a8.58,8.58,0,0,1-5.84,2.35c-4.76,0-8.38-3.72-8.38-8.87s3.62-8.83,8.38-8.83a8,8,0,0,1,6.29,3L134,98.5a10.37,10.37,0,0,0-8.44-4.07,11.26,11.26,0,0,0,0,22.52Z" transform="translate(0)"/><polygon class="cls-1" points="103.69 43.74 106.39 43.74 106.39 24.41 113.31 24.41 113.31 22 96.81 22 96.81 24.41 103.69 24.41 103.69 43.74"/><rect class="cls-1" x="101.15" y="94.79" width="2.71" height="21.74"/><polygon class="cls-1" points="78.79 43.74 81.5 43.74 81.5 24.41 88.4 24.41 88.4 22 71.91 22 71.91 24.41 78.79 24.41 78.79 43.74"/><path class="cls-1" d="M82.37,96.87a8.32,8.32,0,0,1,6.29,2.61l1.63-2a10.22,10.22,0,0,0-7.72-3c-4.27,0-7.47,2.45-7.47,6,0,4.27,3.88,5.25,7.37,6.16,2.87.78,5.51,1.5,5.51,4.11,0,1.66-1.24,3.75-5.12,3.75A9.2,9.2,0,0,1,76,111.41l-1.59,2.05a10.76,10.76,0,0,0,8.34,3.45c5.87,0,8-3.22,8-6.39,0-4.56-4-5.67-7.59-6.61-2.77-.75-5.28-1.4-5.28-3.59S79.77,96.87,82.37,96.87Z" transform="translate(0)"/><polygon class="cls-1" points="50.86 116.53 65.1 116.53 65.1 114.12 53.56 114.12 53.56 106.62 64.87 106.62 64.87 104.21 53.56 104.21 53.56 97.2 65.1 97.2 65.1 94.79 50.86 94.79 50.86 116.53"/><polygon class="cls-1" points="53.89 79.95 56.59 79.95 56.59 70.76 65.13 58.21 61.97 58.21 55.22 68.32 48.48 58.21 45.31 58.21 53.89 70.76 53.89 79.95"/><polygon class="cls-1" points="62.78 41.33 51.24 41.33 51.24 33.83 62.56 33.83 62.56 31.42 51.24 31.42 51.24 24.41 62.78 24.41 62.78 22 48.54 22 48.54 43.74 62.78 43.74 62.78 41.33"/><path class="cls-1" d="M40.29,105.67c0-6.16-4.4-10.88-11.15-10.88H21.71v21.74h7.44C35.89,116.53,40.29,111.87,40.29,105.67ZM24.42,97.2h4.73c5.38,0,8.34,3.78,8.34,8.47s-3.07,8.44-8.34,8.44H24.42Z" transform="translate(0)"/><path class="cls-1" d="M37.91,37.87a5.43,5.43,0,0,0-4.23-5.34,4.94,4.94,0,0,0,3.81-5c0-3.26-2.32-5.54-6.1-5.54H21.71V43.74h9.91C35.6,43.74,37.91,41.36,37.91,37.87ZM24.42,24.41h6.52a3.42,3.42,0,0,1,3.75,3.52c0,2-1.3,3.49-3.75,3.49H24.42Zm0,16.92v-7.5h6.65a3.69,3.69,0,0,1,4,3.75c0,2.32-1.5,3.75-4,3.75Z" transform="translate(0)"/><path class="cls-1" d="M37.91,74.09a5.42,5.42,0,0,0-4.23-5.34,4.94,4.94,0,0,0,3.81-5c0-3.26-2.32-5.54-6.1-5.54H21.71V80h9.91C35.6,80,37.91,77.57,37.91,74.09ZM24.42,60.63h6.52a3.42,3.42,0,0,1,3.75,3.52c0,2-1.3,3.49-3.75,3.49H24.42Zm0,16.92V70h6.65a3.69,3.69,0,0,1,4,3.75c0,2.32-1.5,3.75-4,3.75Z" transform="translate(0)"/><path class="cls-2" d="M83.47,146.4c-2.75,0-4.49,2.09-4.49,5s1.73,5,4.49,5,4.49-2.12,4.49-5S86.19,146.4,83.47,146.4Z" transform="translate(0)"/><polygon class="cls-2" points="40.53 146.74 37.86 153.37 43.22 153.37 40.53 146.74"/><path class="cls-2" d="M52.45,146.58H49.8v9.57h2.65a4.79,4.79,0,0,0,0-9.57Z" transform="translate(0)"/><path class="cls-1" d="M183.59,184.24h.65V0H0V184.24H.66M32.25,157h-1V147l-4.13,10h-.37l-4.15-10v10h-1V145.7h1.44L27,155l3.84-9.35h1.46Zm3,0,4.64-11.34h1.21L45.79,157H44.66l-1.12-2.79h-6L36.42,157Zm17.15,0H48.83V145.7h3.62a5.67,5.67,0,1,1,0,11.34ZM62,157V145.7h1V157Zm4.54-1.6.63-.73a4.62,4.62,0,0,0,3.54,1.65c2.33,0,3-1.29,3-2.26,0-1.6-1.51-2-3.11-2.46-1.78-.49-3.69-1-3.69-3.09,0-1.85,1.67-3,3.72-3a4.87,4.87,0,0,1,3.84,1.6l-.65.71a4.06,4.06,0,0,0-3.25-1.43c-1.51,0-2.65.87-2.65,2.09s1.41,1.73,3,2.14c1.84.53,3.84,1.11,3.84,3.4,0,1.46-1,3.21-4,3.21A5.21,5.21,0,0,1,66.51,155.44Zm17,1.8c-3.33,0-5.51-2.55-5.51-5.86s2.18-5.86,5.51-5.86S89,148.06,89,151.38,86.79,157.24,83.47,157.24Zm18.34-.2h-1l-7.14-9.74V157h-1V145.7h1l7.11,9.6v-9.6h1Zm4.27,2.09-.49-.42a2.31,2.31,0,0,0,1-1.56l-.17,0a.68.68,0,0,1-.7-.71.74.74,0,0,1,.73-.73c.46,0,.87.39.87,1.09A3,3,0,0,1,106.08,159.13ZM126.67,157h-1.09l-2.72-9.74L120.14,157h-1.09l-3.25-11.34h1.09l2.74,10,2.79-10h.88l2.77,10,2.74-10h1.09Zm7.31,0h-1V145.7h1Zm47.63-21.49H2.63V2.63h179ZM24.22,167.78c-1.36-.36-2.66-1.23-2.66-2.76,0-2,1.89-3,3.71-3s3.7.93,3.7,3c0,1.53-1.3,2.4-2.66,2.76a3.4,3.4,0,0,1,2.83,3c0,1.85-1.68,3.07-3.88,3.07s-3.89-1.2-3.89-3.07C21.37,169.22,22.76,168.17,24.22,167.78Zm1,.45c-.7.09-2.9.77-2.9,2.52,0,1.39,1.37,2.25,2.9,2.25s2.9-.86,2.9-2.25C28.16,169,25.95,168.31,25.26,168.22Zm0-5.27c-1.51,0-2.71.79-2.71,2.16,0,1.59,2,2.11,2.71,2.25.7-.14,2.71-.65,2.71-2.25C28,163.75,26.75,163,25.26,163Zm7.44,9.38a.77.77,0,0,1,.77.74.79.79,0,0,1-.77.77.78.78,0,0,1-.75-.77A.76.76,0,0,1,32.7,172.34Zm3.53.53c3.89-3.14,6.5-5.37,6.5-7.58A2.36,2.36,0,0,0,40.13,163,3.74,3.74,0,0,0,37,164.45l-.67-.62a4.64,4.64,0,0,1,3.81-1.77c1.68,0,3.6,1,3.6,3.22,0,2.52-2.66,4.82-6,7.5h6v.89H36.23Zm10.92-1.48a3.83,3.83,0,0,0,3.21,1.6c1.77,0,2.88-.93,2.88-2.44s-1.36-2.32-3.07-2.32c-.46,0-.89,0-1.06,0v-.93c.17,0,.6,0,1.06,0,1.51,0,2.9-.65,2.9-2.18S51.8,163,50.33,163a3.86,3.86,0,0,0-3.07,1.46l-.62-.62a4.75,4.75,0,0,1,3.74-1.73c2,0,3.69,1.08,3.69,3a2.77,2.77,0,0,1-2.45,2.68,2.91,2.91,0,0,1,2.62,2.85c0,1.89-1.42,3.28-3.86,3.28a4.52,4.52,0,0,1-3.89-1.9Zm18.57.58H65v-3.72H61.57v-.72H65v-3.62h.77v3.62h3.36v.72H65.72Zm13.53-4.2c-1.36-.36-2.66-1.23-2.66-2.76,0-2,1.89-3,3.71-3s3.7.93,3.7,3c0,1.53-1.3,2.4-2.66,2.76a3.4,3.4,0,0,1,2.83,3c0,1.85-1.68,3.07-3.88,3.07s-3.89-1.2-3.89-3.07C76.4,169.22,77.79,168.17,79.25,167.78Zm1,.45c-.7.09-2.9.77-2.9,2.52,0,1.39,1.37,2.25,2.9,2.25s2.9-.86,2.9-2.25C83.19,169,81,168.31,80.29,168.22Zm0-5.27c-1.51,0-2.71.79-2.71,2.16,0,1.59,2,2.11,2.71,2.25.7-.14,2.71-.65,2.71-2.25C83,163.75,81.79,163,80.29,163Zm7.44,9.38a.77.77,0,0,1,.77.74.79.79,0,0,1-.77.77.78.78,0,0,1-.75-.77A.76.76,0,0,1,87.73,172.34Zm3.53.53c3.89-3.14,6.5-5.37,6.5-7.58A2.36,2.36,0,0,0,95.16,163,3.74,3.74,0,0,0,92,164.45l-.67-.62a4.64,4.64,0,0,1,3.81-1.77c1.68,0,3.6,1,3.6,3.22,0,2.52-2.66,4.82-6,7.5h6v.89H91.26ZM107,170.55h-5.42v-.87l5.08-7.44H108v7.43h1.68v.89H108v3.12h-1Zm-4.41-.89H107v-6.45Zm17.54-7.77h.77L116.83,174h-.77Zm5.52,0h.77L122.35,174h-.77Zm7.54,11c3.89-3.14,6.5-5.37,6.5-7.58a2.36,2.36,0,0,0-2.61-2.33,3.74,3.74,0,0,0-3.14,1.49l-.67-.62a4.64,4.64,0,0,1,3.81-1.77c1.68,0,3.6,1,3.6,3.22,0,2.52-2.66,4.82-6,7.5h6v.89h-7.55Zm14.93-10.81c3.05,0,4.22,3.17,4.22,5.9s-1.17,5.92-4.22,5.92-4.24-3.21-4.24-5.92S145,162.06,148.12,162.06Zm0,.89c-2.42,0-3.21,2.64-3.21,5s.79,5,3.21,5,3.17-2.68,3.17-5S150.52,163,148.12,163Zm8.76.62-1.83,2-.6-.63,2.52-2.66h.89v11.44h-1Zm6.94,4.2c-1.36-.36-2.66-1.23-2.66-2.76,0-2,1.89-3,3.71-3s3.7.93,3.7,3c0,1.53-1.3,2.4-2.66,2.76a3.4,3.4,0,0,1,2.83,3c0,1.85-1.68,3.07-3.88,3.07s-3.89-1.2-3.89-3.07C161,169.22,162.36,168.17,163.82,167.78Zm1,.45c-.7.09-2.9.77-2.9,2.52,0,1.39,1.37,2.25,2.9,2.25s2.9-.86,2.9-2.25C167.76,169,165.55,168.31,164.87,168.22Zm0-5.27c-1.51,0-2.71.79-2.71,2.16,0,1.59,2,2.11,2.71,2.25.7-.14,2.71-.65,2.71-2.25C167.58,163.75,166.36,163,164.87,163Z" transform="translate(0)"/><rect class="cls-1" x="3.6" y="138.5" width="173" height="39"/></svg>