<svg id="Layer_1" data-name="Layer 1" xmlns="http://www.w3.org/2000/svg" viewBox="0 0 184.24 184.24"><defs><style>.cls-1{fill:#ef5b44;}.cls-2{fill:#363636;}</style></defs><title>betterbydesign2018-orange</title><polygon class="cls-1" points="147.53 99.19 160.21 116.53 162.82 116.53 162.82 94.79 160.11 94.79 160.11 111.77 147.59 94.79 144.82 94.79 144.82 116.53 147.53 116.53 147.53 99.19"/><path class="cls-1" d="M150.79,35.1h4.33l5.54,8.64h3.19L158,34.87a6,6,0,0,0,5.64-6.32c0-4-2.83-6.55-6.81-6.55h-8.73V43.74h2.7Zm0-10.69h5.71a4.16,4.16,0,1,1,0,8.31h-5.71Z" transform="translate(0)"/><polygon class="cls-1" points="137.46 41.33 125.92 41.33 125.92 33.83 137.23 33.83 137.23 31.42 125.92 31.42 125.92 24.41 137.46 24.41 137.46 22 123.21 22 123.21 43.74 137.46 43.74 137.46 41.33"/><path class="cls-1" d="M125.56,117a11.31,11.31,0,0,0,8.54-3.75v-7.86H123.93v2.41h7.46v4.43a8.58,8.58,0,0,1-5.84,2.35c-4.76,0-8.38-3.72-8.38-8.87s3.62-8.83,8.38-8.83a8,8,0,0,1,6.29,3L134,98.5a10.37,10.37,0,0,0-8.44-4.07,11.26,11.26,0,0,0,0,22.52Z" transform="translate(0)"/><polygon class="cls-1" points="103.69 43.74 106.39 43.74 106.39 24.41 113.31 24.41 113.31 22 96.81 22 96.81 24.41 103.69 24.41 103.69 43.74"/><rect class="cls-1" x="101.15" y="94.79" width="2.71" height="21.74"/><polygon class="cls-1" points="78.79 43.74 81.5 43.74 81.5 24.41 88.4 24.41 88.4 22 71.91 22 71.91 24.41 78.79 24.41 78.79 43.74"/><path class="cls-1" d="M82.37,96.87a8.32,8.32,0,0,1,6.29,2.61l1.63-2a10.22,10.22,0,0,0-7.72-3c-4.27,0-7.47,2.45-7.47,6,0,4.27,3.88,5.25,7.37,6.16,2.87.78,5.51,1.5,5.51,4.11,0,1.66-1.24,3.75-5.12,3.75A9.2,9.2,0,0,1,76,111.41l-1.59,2.05a10.76,10.76,0,0,0,8.34,3.45c5.87,0,8-3.22,8-6.39,0-4.56-4-5.67-7.59-6.61-2.77-.75-5.28-1.4-5.28-3.59S79.77,96.87,82.37,96.87Z" transform="translate(0)"/><polygon class="cls-1" points="50.86 116.53 65.1 116.53 65.1 114.12 53.56 114.12 53.56 106.62 64.87 106.62 64.87 104.21 53.56 104.21 53.56 97.2 65.1 97.2 65.1 94.79 50.86 94.79 50.86 116.53"/><polygon class="cls-1" points="53.89 79.95 56.59 79.95 56.59 70.76 65.13 58.21 61.97 58.21 55.22 68.32 48.48 58.21 45.31 58.21 53.89 70.76 53.89 79.95"/><polygon class="cls-1" points="62.78 41.33 51.24 41.33 51.24 33.83 62.56 33.83 62.56 31.42 51.24 31.42 51.24 24.41 62.78 24.41 62.78 22 48.54 22 48.54 43.74 62.78 43.74 62.78 41.33"/><path class="cls-1" d="M40.29,105.67c0-6.16-4.4-10.88-11.15-10.88H21.71v21.74h7.44C35.89,116.53,40.29,111.87,40.29,105.67ZM24.42,97.2h4.73c5.38,0,8.34,3.78,8.34,8.47s-3.07,8.44-8.34,8.44H24.42Z" transform="translate(0)"/><path class="cls-1" d="M37.91,37.87a5.43,5.43,0,0,0-4.23-5.34,4.94,4.94,0,0,0,3.81-5c0-3.26-2.32-5.54-6.1-5.54H21.71V43.74h9.91C35.6,43.74,37.91,41.36,37.91,37.87ZM24.42,24.41h6.52a3.42,3.42,0,0,1,3.75,3.52c0,2-1.3,3.49-3.75,3.49H24.42Zm0,16.92v-7.5h6.65a3.69,3.69,0,0,1,4,3.75c0,2.32-1.5,3.75-4,3.75Z" transform="translate(0)"/><path class="cls-1" d="M37.91,74.09a5.42,5.42,0,0,0-4.23-5.34,4.94,4.94,0,0,0,3.81-5c0-3.26-2.32-5.54-6.1-5.54H21.71V80h9.91C35.6,80,37.91,77.57,37.91,74.09ZM24.42,60.63h6.52a3.42,3.42,0,0,1,3.75,3.52c0,2-1.3,3.49-3.75,3.49H24.42Zm0,16.92V70h6.65a3.69,3.69,0,0,1,4,3.75c0,2.32-1.5,3.75-4,3.75Z" transform="translate(0)"/><path class="cls-2" d="M83.47,146.4c-2.75,0-4.49,2.09-4.49,5s1.73,5,4.49,5,4.49-2.12,4.49-5S86.19,146.4,83.47,146.4Z" transform="translate(0)"/><polygon class="cls-2" points="40.53 146.74 37.86 153.37 43.22 153.37 40.53 146.74"/><path class="cls-2" d="M52.45,146.58H49.8v9.57h2.65a4.79,4.79,0,0,0,0-9.57Z" transform="translate(0)"/><path class="cls-1" d="M0,0V184.24H184.24V0ZM181.61,135.55H2.63V2.63h179Z" transform="translate(0)"/></svg>