<svg id="Layer_1" data-name="Layer 1" xmlns="http://www.w3.org/2000/svg" viewBox="0 0 1044.94 421.24"><defs><style>.cls-1{fill:#fff;}</style></defs><title>logo</title><g id="dseM4l.tif"><path class="cls-1" d="M1042,139.65a172,172,0,0,0-18.69-42.86c-18.53-30.71-42.56-52.87-72.41-65.59C919.08,17.62,886,10.69,852.78,5.84c-16.54-2.41-33.23-3.18-49.85-3.9C778.3.89,753.63-.47,729.08.16c-25,.64-50,2.63-74.75,5.66C628,9,601.69,13.22,575.71,18.72s-51.9,12.71-77.61,20.08c-23.5,6.74-47.17,13.27-69.93,22.46C395.61,74.42,363.75,89.68,331.56,104a27,27,0,0,1-12.06,6.15c.06.19.18.39.22.58-31.44,15.2-61.39,33.56-90.81,54.43l-.15-1.06a25.93,25.93,0,0,1-7.63,4.45c0,.5,0,1,.05,1.29-12.34,9-24.33,17.57-36.1,26.48-15.23,11.53-30.21,23.49-45.45,35-3.58,2.71-6,5.34-5.61,11s3.16,8.24,7.28,10.15c20.92,9.7,41.74,19.75,62.74,29.2,6.71,3,12.49,6.73,18.88,10.09,8.49,4.46,19.19,6.46,28.33,9.39l31.29,10,14.12,4.53,71.89,23c21.91,7,44.8,9.68,67.46,14.45a7.49,7.49,0,0,0,2.14-.3c.16,0,.24.22.38.28a27.06,27.06,0,0,1,6.16,1.4c0-.15,0-.3,0-.45,5.35.71,10,1.39,14.74,2,24.71,3,49.41,6.35,74.14,8.77,17.14,1.68,34.32,2.12,51.49,2.9,3.19.15,29.49.68,31.65.6,8.16-.3,16.39.25,24.54-.17,15.33-.81,30.67-1.73,45.94-3.24,19.54-1.93,39.08-3.94,58.48-6.9,23.94-3.65,47.86-7.51,71.54-12.73,23.26-5.12,45.54-13,68.24-20a473.58,473.58,0,0,0,58.87-22.47c18.09-8.32,33.34-22.55,47.15-38.23,16.52-18.75,31.16-39.12,40.51-64a229.3,229.3,0,0,0,10.38-36.92C1043.8,156.15,1044.1,147.1,1042,139.65ZM282.88,136.5c43.51-24.36,87.35-48,134-63.93C451.82,60.63,487,49.42,522.37,39.24c23.86-6.86,48.15-12.23,72.51-16.71,29.33-5.4,58.8-10.63,88.48-13.25,39.83-3.5,80-2.89,120.13-.49,31.45,1.87,62.72,5.29,93.71,13.06,28.7,7.2,57.57,14,83.09,33.45,5.73,4.35,11.53,8.6,17,13.32,2.83,2.43,5.08,5.81,7.6,8.76l-1.32,1.44c-15.07-14.81-32.1-25.45-50.7-31.44C931.54,40.49,910,33.7,888.27,29.59,858.54,24,828.58,20.22,798.66,17c-17.88-1.92-35.89-1.8-53.79-1.64-19.39.18-38.79.8-58.07,2.47s-38.15,4.56-57.14,7.48C611.89,28,594.13,31,576.55,34.81c-20.3,4.42-40.46,9.63-60.57,15-22.66,6-45.32,12.13-67.76,19A755.4,755.4,0,0,0,338.64,112.1c-17.31,8.46-34.23,17.89-51.37,26.79a54.39,54.39,0,0,1-6.77,2.49l-.91-1.73C280.68,138.58,281.63,137.2,282.88,136.5Zm-7.56,4.3,1.61,3.23-60.22,38.32-1.33-2.67ZM212.2,189.56c22.45-13.75,44.76-27.82,67.51-40.92,15.62-9,31.7-17,47.89-24.68,21.6-10.19,43.17-20.69,65.38-29,25.28-9.46,51.21-16.82,76.94-24.78,19.15-5.92,38.36-11.65,57.67-16.9q21-5.7,42.31-9.87C598,37.91,626,31.79,654.4,28.09c26.73-3.49,53.78-4.94,80.77-6,35.47-1.37,71,1.76,106.45,6.63C882.13,34.3,922.3,41.85,961.52,57c17,6.56,32.24,17,46.72,29.21,1.58,1.34,2.75,3.37,4.11,5.08l-.91,1.27c-6.56-4.53-13-9.44-19.73-13.52C971.8,67,950.39,61.25,928.8,56.19c-37.51-8.79-75.32-12.64-113.17-14.92-33.87-2-67.7-2.2-101.38,1.06-22.77,2.2-45.68,3.16-68.38,5.87-21.17,2.53-42.18,6.39-63.18,10.12-17.82,3.16-35.62,6.52-53.27,10.62C512,73,494.8,77.82,477.6,82.73c-15.75,4.5-31.49,9.11-47,14.47q-28.92,10-57.44,21.34-35,13.95-69.68,29c-14.09,6.16-27.9,13.12-41.62,20.25-16.1,8.37-32,17.28-47.94,26-4.64,2.54-9.23,5.22-13.84,7.84l-1.44-3C203.15,195.63,207.58,192.39,212.2,189.56Zm-21.27,60.56c-1.18-.07-2.35-1.54-3.52-2.35,1.24-.67,2.45-1.89,3.73-1.94q18.22-.59,36.47-.77c1.74,0,3.53,1,7,2-2.35,2.65-3.34,4.81-4.38,4.78C217.13,251.46,204,250.86,190.92,250.12Zm126.22-11.25c-4.82.54-9.63,1.29-14.47,1.62-7.1.48-14.26.43-21.34,1.1-3.12.3-5.73,0-5.85-4,0-1.57,2.46-3.11,3.07-3.81,12.47-.43,23.43-.68,34.36-1.24,3.93-.2,7.79-1.37,11.72-1.61a4.76,4.76,0,0,1,3.85,2.28c.48,1-.39,4.21-1.11,4.39C324,238.39,320.56,238.48,317.14,238.87ZM326,265c.33,1-1.4,2.88-2.82,5.49-1.64-2.44-3.34-3.88-3.33-5.22,0-1.56,1.53-3,2.4-4.52C323.52,262.16,325.41,263.33,326,265Zm-8-.48c.09,1.2-1.86,3.69-2.56,3.5-1.54-.41-3.74-2-4-3.41s1.59-3.18,3.26-6.11C316.31,261.36,317.85,262.91,318,264.54Zm-18.71-7c2.06,2.73,3.57,4.19,4.31,6,.24.6-1.83,3.35-2.34,3.15a12.89,12.89,0,0,1-4.81-3.65C296.18,262.82,297.77,260.41,299.26,257.56Zm-6.47,8c-1.92-.51-3.7-1.92-5.54-3,.75-1.44,1.53-4.14,2.23-4.08,1.92.17,3.81,1.51,7.17,3.06C294.54,263.84,293.5,265.75,292.79,265.56Zm35.33-2.91a43.12,43.12,0,0,1,4.66.83c.9.25,1.71,1.39,2.56,1.42,22,.93,44.07,1.87,66.11,2.6,28.08.93,56.16,1.82,84.23,2.45,15.86.35,31.72.45,47.56.1,19-.42,38-1.11,57-2.29,15-.93,29.88-2.82,44.82-4.23,20.33-1.91,40.69-3.55,61-5.72,11.87-1.26,23.65-3.27,35.46-5,17.48-2.58,35-4.69,52.41-8,21.16-4,42.22-8.58,63.17-13.6,19.07-4.57,38.08-9.52,56.86-15.31,23-7.07,46.09-13.88,68.29-23.28,17.36-7.35,33.41-18.48,50-27.93,1.16-.66,2.31-1.36,3.46-2l1.83,1.61c-1,1.8-1.63,4.35-3.07,5.29-13.56,8.88-27,18.19-41,26-27.24,15.22-56.88,22.85-86.26,31-25.36,7.07-50.93,13.32-76.49,19.51-11.51,2.79-23.19,4.87-34.88,6.76-24.34,3.93-112.66,16.88-129,18.82-9.07,1.07-18.27,1-27.38,1.78-12.29,1-24.52,2.66-36.83,3.3-17.28.89-34.61,1.26-51.94,1.56-15.83.27-31.68.27-47.53.17-20.56-.12-41.12,0-61.68-.83-18.64-.72-37.29-2.49-55.93-3.78-9.72-.68-19.45-1.16-29.17-2.09-3.86-.37-7.69-1.79-11.55-2.57-.7-.14-1.47.68-2.22.68-1.46,0-4.05.05-4.19-.49C327.93,267.33,328.16,265,328.11,262.65Zm3-29c-.9-5.91,3.59-5.34,6.8-7.13,2.74,5.14,1.71,8.11-2.42,9C334.1,235.79,331.21,234.53,331.07,233.65ZM1013,166.71a359.78,359.78,0,0,1-75.29,30.06c-15.41,4.12-30.46,9.84-45.89,13.92-23.65,6.26-47.46,11.84-71.25,17.48-10.55,2.5-21.14,5-31.86,6.55-14.24,2-28.65,2.78-42.94,4.47s-28.38,4-42.62,5.68c-5.4.63-11-.1-16.41.22-2.51.15-4.9,1.84-7.41,2-25.77,1.54-51.56,2.88-77.33,4.35-11.94.68-23.85,1.83-35.81,2.21-15.22.48-30.49.2-45.72.62-13.89.38-27.74,1.47-41.62,1.84-9.51.25-19.05-.11-28.58-.35q-35.72-.9-71.44-2c-10.29-.29-20.58-.58-30.87-1.16-.91-.05-2.66-2.38-2.56-3.37.37-3.64.61-7.84,5.1-8,6.37-.23,12.76-.28,19.1-.76,14-1.07,27.87-2.49,41.83-3.53,21.29-1.59,42.58-3.16,63.89-4.38,16.67-1,33.42-1,50.07-2.15,11.15-.79,22.16-3,33.28-4.31,8.52-1,17.1-1.55,25.67-2.06,9.69-.58,19.44-.52,29.1-1.37,18.7-1.64,37.37-3.59,56-5.64,26.1-2.87,52.18-6,78.27-9,16.18-1.86,32.34-3.94,48.55-5.52,13.78-1.35,27.67-1.78,41.43-3.29,9.75-1.07,19.36-3.38,29.06-4.95,14.87-2.4,29.88-4,44.64-7.06,22.37-4.58,44.61-9.89,66.83-15.24,13.38-3.22,26.62-7.12,39.92-10.71l.66,1.42A59.79,59.79,0,0,1,1013,166.71Zm-667.65,40.5q-47.41,5.86-94.84,11.55c-4.94.6-9.87,1.36-14.8,2l-.37-2.9c8.16-2.31,16.22-5.12,24.49-6.84,18.81-3.93,37.63-8,56.64-10.63,9.44-1.29,19.33.47,29,1.26,1.6.13,3.16,2.35,4.74,3.61C348.57,205.95,347,207,345.31,207.21Zm-97.58,27.7c7.31,1.13,14.75.41,23.43.47a10,10,0,0,1,.69,4.4c-.16,1-2.61,1.74-4.09,1.82-7.58.45-15.17.83-22.77.76-1.36,0-2.79-2.17-4.19-3.37C242.22,235.71,243.75,234.29,247.74,234.9Zm25.93,35.77c3.8.86,7.72.79,11.58,1.31s7.72.64,11.33,2c4,1.51,7.65,3.11,11.94,2.18,2.22-.48,4.78,1,7.2,1.3C350,282,384.26,287.4,418.59,290.79c31.29,3.08,62.66,4.28,94,5.75,23.09,1.08,46.24,2.33,69.24,1.58,31.44-1,62.77-3.85,94.14-6,3.24-.22,46.93-5.34,48.3-5.52,10.74-1.42,21.46-3,32.13-4.81,12.16-2.1,24.32-4.24,36.37-6.92,18.21-4,36.44-8,54.44-13,26.1-7.19,52.36-14,77.9-23.21,33.46-12,65.83-27.06,92.29-54.58,3-3.1,6.64-5.31,10-7.93l1.78,1.27c-2.75,3.75-5,8.18-8.33,11.11-11.74,10.44-23.37,21.18-35.93,30.21a130.33,130.33,0,0,1-30.13,16q-41.15,15.44-82.9,28.92c-16.14,5.21-32.68,9-49.18,12.77-24.85,5.65-49.8,10.78-74.74,16-7.5,1.56-15.09,2.64-22.64,3.87h-.11c-.64.92-45.23,4-47.64,4.21-21.28,1.81-42.55,4.07-63.9,4.87-22.4.84-44.88.64-67.34.13-31.71-.73-63.45-1.36-95.16-3.55-26-1.8-51.95-5.66-77.9-8.92q-25.49-3.2-50.92-7.36c-5.55-.9-10.95-3.6-16.5-4.73-3.23-.66-6.63.42-10,.23a64.24,64.24,0,0,1-10-1.52c-10.54-2.29-21.06-4.77-31.61-7-5.1-1.1-10.27-1.68-15.33-3-1.46-.38-2.65-2.48-4-3.79,1.48-1.16,3.12-3.55,4.43-3.27C250.89,265,262.25,268.08,273.66,270.67Zm708.95-7.08c-5.46,4.6-10.93,9.32-16.88,13a290.13,290.13,0,0,1-67.28,30.61c-16.45,5-32.46,11.76-49,16.54-18.89,5.47-38,10-57.21,14.23-15.65,3.47-31.41,6.53-47.28,8.69-17.32,2.36-34.77,3.87-52.23,5-18.44,1.21-36.94,1.9-55.44,2.18-14.88.23-29.8-.49-44.7-.75-1.52,0-3.2.79-4.5.19-.48-.22-39.34-1.13-45.36-1.65-22.14-1.91-44.29-3.63-66.41-6-17.34-1.85-34.66-4.44-52-6.88-37.64-5.31-74.73-15-111.65-25.65-15.82-4.58-31.4-10.56-47.08-15.95q-21.61-7.43-43.19-15a37.27,37.27,0,0,1-7.28-2.91c-1-.63-1.44-2.73-2.31-4.52,4.58,1.12,7.72,1.7,10.78,2.68,17.67,5.6,35.28,11.52,53,16.91,21.79,6.63,43.57,13.46,65.53,19.08,20.15,5.16,40.5,9.07,60.81,13.06,16.52,3.24,33.08,6.57,49.68,8.46s33.2,3.37,49.8,4.83c7.85.69,15.71,1.57,23.56,2,4,.24,23.46,2.79,29.31,3.27,6.33.52,52.38.22,61.77.18,19.45-.09,38.91-.18,58.34-.76,14.48-.44,29-1.24,43.36-2.65,11.65-1.14,23.18-3.36,34.75-5.22,12.35-2,24.79-3.5,37-6.32,21.73-5,43.54-9.94,64.86-16.62,24.42-7.66,48.76-16,72.36-26.29,18.46-8,35.75-19.36,53.55-29.24,1-.54,1.89-1.22,2.84-1.83l1.62,1.43C984.73,259.73,984.1,262.34,982.61,263.59Zm44.14-64c-13.76,21.89-31.34,38.67-52.5,50.24-16.85,9.21-33.57,18.84-50.92,26.71A319.83,319.83,0,0,1,878,292.81c-25,7-50.07,14-75.49,18.84-31.06,6-62.41,10.6-93.82,14.24-24.38,2.83-49,3.68-73.62,4.6-17.89.67-35.86.17-53.8-.28a89.41,89.41,0,0,0-9.55.58c-2.63.37-46-1.79-61.64-3.5-29.79-3.26-59.55-7.06-89.31-10.9-16.18-2.09-32.42-4-48.47-7.29-24-5-48-11.08-71.91-16.92-1.32-.32-2.37-2.54-3.55-3.87,1.46-.27,3-1,4.37-.75,25.65,4.83,51.25,10.12,76.93,14.61,19.34,3.38,38.76,6.16,58.17,8.49q40.28,4.84,80.63,8.52c16.41,1.52,79,3.05,89.58,2.85,17.74-.34,35.48-.57,53.21-1.15,17-.55,34-.58,50.8-2.49,24.12-2.73,48.1-6.68,72-10.65,14.84-2.46,29.63-5.4,44.25-9,35.89-8.93,71.84-17.91,105.48-34.87,27.82-14,56.15-27.37,78.41-52.09,7.94-8.82,14.6-19.22,23.2-28.24C1031.51,188.89,1029.76,194.78,1026.75,199.57ZM1038,148.84c.07,1-4.15,2.72-6.57,3.25-23.28,5-46.59,9.84-69.89,14.73-3.18.67-6.34,1.4-9.53,2-13.65,2.68-27.26,5.62-41,7.91-13.88,2.32-27.87,4-41.81,5.94-31.06,4.3-62,9.17-93.2,12.67-21.73,2.44-43.72,2.68-65.54,4.46-13.26,1.08-26.38,3.57-39.63,4.82-22.78,2.15-45.62,3.81-68.43,5.73-15.38,1.3-30.77,2.54-46.13,4.1-8.58.87-17.05,2.68-25.64,3.43-20.32,1.77-40.68,3.17-61,4.69q-26.52,2-53,3.88c-11,.79-22.07,1.37-33.07,2.36-8.9.8-17.77,1.9-26.61,3.18-5.25.76-6.52-.26-5-6.26a77.82,77.82,0,0,1,5.71-14.86c.7-1.43,3.18-2,4.94-2.23,14.46-1.87,29-3.21,43.41-5.41,20.93-3.19,41.69-7.63,62.68-10.34,31.42-4.07,63-6.89,94.47-10.64,22.21-2.65,44.31-6.27,66.53-8.86,19.14-2.23,38.38-3.56,57.56-5.48,1.16-.12,2.13-1.92,3.18-2.93-1.21-1.45-2.38-4-3.65-4.14a51.7,51.7,0,0,0-11.4.25q-29.32,3.15-58.61,6.53-30.93,3.61-61.82,7.5c-46.68,5.89-93.38,11.68-140,17.92-17.69,2.37-35.23,5.88-52.86,8.73a8.72,8.72,0,0,1-4.95-.92c-22.19-10.84-44.27-9.18-66.45-3.19-14.55,3.93-29.33,6.86-43.86,10.88-7.69,2.13-15.07,5.57-22.55,8.55a3.3,3.3,0,0,0-1.72,2.34c-.46,6.36-4.5,6.27-8.57,7-13.68,2.56-27.31,5.45-40.92,8.39-1.87.4-3.54,1.77-5.31,2.69l.52,1.69,9.12-1.27c13.07-1.81,26.23-3.17,39.19-5.62a48.37,48.37,0,0,1,19.58.08c4.7,1,4.82,2.74,4.65,6.54l0,0c-14.43.64-28.91.91-43.3,2-10.11.77-20.11,2.67-30.08,4.06L166,240.38,155.21,237l-2.6,4.55c-3.86-6.2-3.74-5.78,4.55-8.58,15.22-5.13,30.53-10.11,45.35-16.45,22.84-9.78,45.27-20.74,67.93-31,6.3-2.86,12.89-4.91,19.18-7.79,1.93-.89,3.3-3.33,4.92-5.05-2.19-.44-4.71-1.88-6.5-1.14-13.34,5.5-26.61,11.22-39.75,17.27-24.13,11.11-48.16,22.5-72.24,33.76-.65.31-1.34.53-2,.79l-1.37-1.51c1.19-1.44,2.13-3.48,3.6-4.23,13.78-7,27.69-13.74,41.5-20.72,15.71-7.94,31.25-16.29,47-24,9-4.37,18.34-7.66,27.43-11.73,9.82-4.39,19.43-9.37,29.29-13.63,19.07-8.24,38.26-16.14,57.4-24.2,9.5-4,18.82-8.6,28.51-11.95,14.06-4.85,28.36-8.85,42.57-13.15,15-4.53,29.86-9.28,44.92-13.41,12.65-3.47,25.47-6.27,38.24-9.23,13.16-3.05,26.25-6.52,39.54-8.76,22.93-3.87,46-7,69-10.31,5.63-.82,11.29-1.53,17-1.93,24.5-1.73,49-3.6,73.52-4.89C752.08,48.67,772,47,792,48.06c33,1.84,66.11,5.2,99.13,8.86A343.38,343.38,0,0,1,969.79,75c17.33,6.24,33.51,15.81,48.71,27.65a36.34,36.34,0,0,1,12.64,16.8c-8.74-6.3-16.09-12-23.76-17a185.17,185.17,0,0,0-18.51-10c-1-.49-2.5.56-3.77.9.62,1.53.9,3.64,1.93,4.47a21.5,21.5,0,0,0,6.34,3.35c13.48,4.82,25.56,12.94,36.93,22.66,1.87,1.59,3.19,4.08,4.76,6.16l-.88,1.28a10.46,10.46,0,0,1-2.73-1.21c-17-14-35.79-21.55-55.94-24.78-11.63-1.87-23.21-5.25-34.83-6-27.49-1.75-55-3.11-82.48-3.16-26.51-.05-53,1.4-79.42,2.83-17.66,1-35.23,3.06-52.84,4.63-18.05,1.61-36.19,2.57-54.14,5-22,3-43.92,7.2-65.89,10.79-8.81,1.44-17.68,2.49-26.5,3.92-19,3.08-38,5.87-56.83,9.56q-28.58,5.58-56.88,12.74c-18.07,4.55-35.9,10.15-53.91,15-6.55,1.76-13.39,2.28-20,4-10.41,2.65-20.75,5.67-31,8.9-1.12.35-1.59,3.14-2.37,4.79,1.49.75,3.24,2.46,4.42,2.08,6.31-2,12.37-5,18.71-6.87s13.22-2.66,19.77-4.26c11.5-2.81,22.92-6,34.42-8.82,20.58-5,41.12-10.3,61.81-14.73,18.24-3.9,36.66-6.94,55-10.11,26.87-4.63,53.74-9.3,80.68-13.43,15.28-2.34,30.72-3.55,46.06-5.45,3.95-.49,7.76-2.09,11.71-2.48,16.13-1.6,32.28-3,48.44-4.35,18.63-1.57,37.24-3.53,55.92-4.42,21.65-1,43.37-1.29,65.08-1.49,14.67-.13,29.37.24,44.06.69,28.18.86,56.38,3.82,84,11,15.39,4,29.94,13.3,44.91,20.07C1039.37,138.26,1037.69,144.19,1038,148.84Z"/><path class="cls-1" d="M1044.6,145c-9.09-.49-18.18-1-27.27-1.47s-18.28-1.21-27.39-1.07c-23.41.36-46.87.37-70.19,2-34.25,2.33-68.41,5.71-102.56,9-15.55,1.51-31,4.12-46.52,5.84q-30.72,3.4-61.53,6c-1.78.15-5.2-2-5.47-3.59-.7-4.05,2.34-3.75,5-3.94,9.49-.66,19-1.53,28.44-2.51q35-3.64,70-7.47c22.34-2.47,44.62-5.53,67-7.53,24.08-2.15,48.24-3.42,72.38-5,10.8-.7,21.6-1.88,32.42-1.53,13,.42,26,2.24,39,3.46,6.47.61,13,.94,19.39,2,2.61.42,5.1,2.39,7.64,3.66Z"/><path class="cls-1" d="M352,186.79,345,184.6a67.17,67.17,0,0,1,6-5.22,5.47,5.47,0,0,1,3.88-.75,29.34,29.34,0,0,1,5.23,1.95,44.68,44.68,0,0,1-4.67,4.84c-.8.62-2.19.26-3.31.34Z"/><path class="cls-1" d="M306.65,172.74c-2.45-3.71-2.16-6.16,1.71-7.32a31,31,0,0,1,5.42-1.53c1.37-.15,2.82.49,4.24.77-.87,1.78-1.36,4.36-2.69,5.16C312.91,171.29,310,171.7,306.65,172.74Z"/></g><path class="cls-1" d="M849.89,329.12c-3.16,8.59-7.69,21-12.39,31.6-4.18,9.45-8.15,17.45-16.72,20.83-6,2.37-13,2.4-19.35,3.33-5.89.86-11.75,2-17.63,2.95L742,394.9q-42.65,7.18-85.29,14.36l-20.7,3.5c-4,.67-11.5,3.49-14.42,1.49-4.12-2.83-7.22-12.29-9.5-16.57-4-7.49-7.81-15.1-12.12-22.41-1.49-2.52-4.08-8.42-7.57-8.76-2.82-.28-1.31,5.92,1.22,6.17,1.49.15,6.81,11.51,8.07,13.84,3.8,7,7.43,14.15,11.3,21.14,2.06,3.72,4.59,10.31,8.37,12.74,2,1.31,2.66.79,5.36.34,7.29-1.22,14.58-2.48,21.87-3.71q44-7.45,88.09-14.84l43.56-7.35c13.38-2.27,27.86-2.92,40.89-6.67,20.71-6,26.24-37.31,32.58-54.56.82-2.24-2.7-7.49-3.8-4.5Z"/><path class="cls-1" d="M821.55,352.63a120.22,120.22,0,0,0-30.08,4.31c-5.86,1.61-7.69,10.73-8.26,14.69a1.85,1.85,0,0,0,.37,1.74,2.83,2.83,0,0,0,1.27.52c6.74,1.51,13.89-.25,20.53-2.07,5.5-1.51,17.1-4.1,18.49-9.28C824.44,360.44,826.63,352.55,821.55,352.63Z"/><path class="cls-1" d="M661.05,383.05c-2.55-7-16.07-5.57-22.94-4.8-8.85,1-20.57,1.73-14.17,10.34,9.88,13.29,14,8.68,23.39,8.15S664.07,391.3,661.05,383.05Z"/><path class="cls-1" d="M712.67,374.84c-3.51-6.58-17.16-3.37-24.09-1.68-8.93,2.18-14.24,3.18-13.17,12.16,1.28,10.82,15.42,6.73,25,4.94S716.82,382.61,712.67,374.84Z"/><path class="cls-1" d="M765.66,362.63a120.8,120.8,0,0,0-19.53,2.09c-5.39,1-12,1.55-15.31,6.52-1.72,2.6-3.39,11.76.33,13.52a5.25,5.25,0,0,0,2.89.2c8.63-1.07,17.24-2.64,25.81-4.11,3.26-.56,7.31-1.29,8.62-4.86.64-1.62.34-6.7.43-8.44C769,365.24,768.45,362.56,765.66,362.63Z"/><path class="cls-1" d="M130.59,252.36C82.19,228.65,41.12,193.48.44,158.69c-2.12-1.81,4-3.56,4.57-3.65q77.39-11.4,154.76-22.9c19.5-2.87,39.38-6.24,59.15-5.8,8,.18,15.86,1.09,22.32,6.16,6.76,5.3,7,8.83,12.57,15.28,2.11,2.46-3.64,9.73-5.8,7.21-5.51-6.42-9.84-15-16.87-20-7.21-5.06-17.25-4-25.61-3.6-20.41,1.09-40.7,4.68-60.89,7.67q-69.49,10.26-139,20.57L10.26,156c40.31,34.47,81,69.22,128.94,92.72,3.63,1.78-5.89,5-8.61,3.64Z"/><path class="cls-1" d="M273.3,304.09c-10.76,12.46-21,33.07-38.52,36.92-10.68,2.35-22.39,2.29-33.28,3.35q-16.9,1.65-33.8,3.37c-43.94,4.45-87.86,9.1-131.84,13.16l6,13C68.67,331.89,112,285.23,141,245c3.54-4.92-9.21-3.12-13.12,2.31-29,40.25-67.53,72.67-94.27,114.64-2.51,3.93.26,13.5,6,13,46.11-4.26,92.16-9.16,138.23-13.81q17-1.71,33.92-3.35c10-1,21.65-.43,31.24-3.67C260.43,348.2,270.39,329,281.62,316c4-4.58-3.81-17.13-8.32-11.91Z"/><path class="cls-1" d="M120.92,271.83l31-8.12c5.16-1.35-1.26-6.68-4.79-5.76l-31,8.12c-5.16,1.35,1.26,6.68,4.79,5.76Z"/><path class="cls-1" d="M115.63,280.39l44.48-9.09c3.1-.63-.67-5.17-3-4.7l-44.48,9.09c-3.1.63.67,5.17,3,4.7Z"/><path class="cls-1" d="M105.07,291.8q21.27-3.46,42.34-8c1.54-.33.13-6.49-1.5-6.13q-21.07,4.52-42.34,8c-1.48.24-.21,6.41,1.5,6.13Z"/><path class="cls-1" d="M151.38,281.82a17,17,0,0,0,6.56-.52c1.73-.48,1.65-5.12-.4-4.56a14.92,14.92,0,0,1-5.8.41c-1.88-.22-2.29,4.44-.35,4.67Z"/><path class="cls-1" d="M163.54,278.07l16.07-2.23c3.23-.45,0-2.35-2-2.08L161.56,276c-3.23.45,0,2.35,2,2.08Z"/><path class="cls-1" d="M97.05,300.43c7,2.72,15.22-.56,22.34-1.83L150.67,293c3.56-.63-.46-4.59-2.86-4.17l-25,4.45-12.51,2.22c-3.23.57-8.52,2.64-11.72,1.4-3.42-1.33-5,2.13-1.51,3.49Z"/><path class="cls-1" d="M153.28,292a39.52,39.52,0,0,0,10.5-1c1.17-.28,3.34-1.28,2.52-2.8s-3.76-1.24-5-.94a23.49,23.49,0,0,1-6.27.62c-1.42,0-4.19.29-4.74,1.92s1.92,2.21,3,2.25Z"/><path class="cls-1" d="M170.31,290.16Q181,288,191.67,285.43c2-.5-.5-3.3-2.11-2.9q-10.63,2.6-21.36,4.74c-2,.4.5,3.23,2.11,2.9Z"/><path class="cls-1" d="M131.85,259.89a59.24,59.24,0,0,0,13.35-4.12c1.67-.75,1.52-2-.09-2.7a9.19,9.19,0,0,0-6.61.21,41.39,41.39,0,0,1-9.25,3c-1.08.21-4,.77-3.19,2.46.74,1.52,4.55,1.39,5.79,1.15Z"/><path class="cls-1" d="M172.35,307.51q29.33-4.68,58.34-11c4.94-1.08-3.5-4.77-6.05-4.21q-29,6.35-58.34,11c-4.93.79,3.51,4.62,6.05,4.21Z"/><path class="cls-1" d="M170.62,315.87,255.77,303c4.77-.72,1-5.72-2.59-5.18L168,310.69c-4.77.72-1,5.72,2.59,5.18Z"/><path class="cls-1" d="M151.06,328.82l123.32-21c.47-.08-5.22-4.9-7.82-4.46l-123.32,21c-.47.08,5.22,4.9,7.82,4.46Z"/><path class="cls-1" d="M133.19,341.1q66-8,131.49-19.15c3.44-.59,2.38-9.43-1-8.86q-65.51,11.16-131.49,19.15c-3.42.41-2.46,9.27,1,8.86Z"/><path class="cls-1" d="M133.4,349.65q59.93-7.46,119.59-16.86c6-1,4.69-6.92-1.28-6q-58.34,9.21-117,16.52c-5,.62-8,7.14-1.35,6.32Z"/><path class="cls-1" d="M116.71,227.76q18.85-2,36.57-5.13c5.9-1,3.75,6.22-.7,7q-19,3.29-39.1,5.45c-6.69.69-.92-6.9,3.23-7.33Z"/><path class="cls-1" d="M108,221.44c16.87-2.32,32.62-5.26,47.23-8.68,3-.72,3.29,4.64.82,5.22-15.51,3.61-32.18,6.71-50,9.13-3.73.5-.67-5.32,1.92-5.67Z"/><path class="cls-1" d="M85.32,214.44c15.7-2,30.08-4.2,43.64-6.46,1.45-.24,3.2,6,1.51,6.25-14.51,2.47-29.85,4.82-46.5,7-1.78.23-.54-6.53,1.35-6.78Z"/><path class="cls-1" d="M133.34,208.39a14.64,14.64,0,0,1,5.75-1.95c1.64-.21,4.34,4,2.26,4.25a13.89,13.89,0,0,0-5.29,1.84c-1.61.93-4.29-3.22-2.72-4.14Z"/><path class="cls-1" d="M145.23,206.68q7.1-2.05,13.6-4.21c2.61-.87,2.52,2.85.84,3.4q-6.83,2.23-14.25,4.35c-3,.85-1.87-3.05-.19-3.54Z"/><path class="cls-1" d="M67.94,208.28c8.25-4.78,16.3-3.67,23.45-4.55,10.32-1.25,20-2.75,29.1-4.45,3.09-.59,1.27,4.55-1,5q-11.59,2.13-24.39,3.83-6.4.84-13.09,1.55c-3.48.38-9.07-.28-12.9,1.93-4.18,2.38-5.41-.89-1.18-3.28Z"/><path class="cls-1" d="M125.85,199a29,29,0,0,1,8.37-2.61c1-.15,3,0,3.25,1.69s-2.15,2.46-3.28,2.63a30.28,30.28,0,0,0-6.72,1.87c-1.13.54-2.09,1-3.18-.41s.72-2.75,1.56-3.16Z"/><path class="cls-1" d="M141.2,196.17c5.75-1.23,11.3-2.39,16.76-3.49,1.56-.32,2.32,2.89,1,3.16-5.73,1.17-11.56,2.39-17.59,3.68-1.71.36-1.44-3.07-.17-3.34Z"/><path class="cls-1" d="M134.74,234.49a109.09,109.09,0,0,1,17.32-2.12c2.3-.09,3.11,1.06,1.84,2.36-1.5,1.54-4.81,2.68-7.51,2.77a78.81,78.81,0,0,0-12.59,1.36c-1.39.28-5.2,1-5.12-.89.09-1.71,4.55-3.17,6.06-3.48Z"/><path class="cls-1" d="M233.18,134.84C160.87,141.77,88.23,152,16.85,165.22"/><path class="cls-1" d="M240.79,140.26c-27.31,1.26-57.65,6.41-84.25,12.72"/><path class="cls-1" d="M237.08,162.85c-53.58,4.23-137.68,18.6-189.71,31"/><path class="cls-1" d="M149.9,153.64c-26.59,3.7-94.57,14.85-121.16,18.55"/><path class="cls-1" d="M215.73,174.82C182.47,177.48,90.51,192,59,201.61"/></svg>