<svg id="Layer_1" data-name="Layer 1" xmlns="http://www.w3.org/2000/svg" viewBox="0 0 446.44 183.85"><defs><style>.cls-1{fill:#fff;}</style></defs><title>whitelogo</title><path class="cls-1" d="M13.34,162.63l40.38-52.38L0,70.43c6.12-1,10.73-1.76,15.37-2.41C40.56,64.54,65.78,61.17,91,57.54a10,10,0,0,1,8.59,2.51c3.32,2.75,6.88,6.94,10.5,7.11s7.27-3.89,10.86-6.19C145.22,45.44,171.79,34.88,199,25.85c31.78-10.54,64.19-18.64,97.44-22.8C329-1,361.6-2.4,393.36,7.82a103.6,103.6,0,0,1,28,13.71c26.55,18.88,37,57,6.19,88.88-16.58,17.18-36.94,28.09-58.83,36.73a13.36,13.36,0,0,0-5.91,5.24c-2.62,4.23-4.26,9.06-6.93,13.25a10.08,10.08,0,0,1-5.95,4.25c-26.67,4.74-53.4,9.11-80.08,13.81-3.31.58-4.83-.36-6.25-3.11-2.68-5.17-5.49-10.3-8.63-15.19a7.3,7.3,0,0,0-4.88-3.1c-43.53-2-94.94-11.91-128.89-28.13-3.46,4.28-6.85,8.8-10.62,13a10.56,10.56,0,0,1-5.68,3.42C75.32,154.83,45.68,158.9,16,163A17.13,17.13,0,0,1,13.34,162.63Z"/></svg>