<svg xmlns="http://www.w3.org/2000/svg" viewBox="0 0 239.64 239.49"><defs><style>.a{fill:#fff;}</style></defs><title>Dirigible</title><path class="a" d="M119.76,0C54.06-.29.79,53.25,0,118.21c-.8,66.12,52.38,121.1,119.09,121.29s120.39-53.22,120.54-119.21C239.79,52.89,185-.39,119.76,0Zm63,143.52a5.81,5.81,0,0,0-2.56,2.27c-1.13,1.83-1.85,3.92-3,5.74a4.38,4.38,0,0,1-2.58,1.84c-11.56,2.05-23.14,3.95-34.7,6A2.15,2.15,0,0,1,137.2,158c-1.16-2.24-2.38-4.46-3.74-6.58a3.15,3.15,0,0,0-2.11-1.34c-18.86-.86-41.14-5.16-55.85-12.19-1.5,1.85-3,3.81-4.6,5.62A4.59,4.59,0,0,1,68.43,145c-12.83,1.85-25.68,3.62-38.53,5.39a6.77,6.77,0,0,1-1.17-.16l17.5-22.7L23,110.28c2.65-.42,4.65-.76,6.66-1,10.92-1.51,21.85-3,32.76-4.54a4.35,4.35,0,0,1,3.72,1.09c1.44,1.19,3,3,4.55,3.08s3.15-1.69,4.71-2.68c10.53-6.73,22-11.31,33.84-15.22a221.35,221.35,0,0,1,42.22-9.88c14.1-1.76,28.24-2.36,42,2.07a44.92,44.92,0,0,1,12.15,5.94c11.51,8.18,16,24.7,2.68,38.52C201.07,135.05,192.24,139.78,182.76,143.52Z"/></svg>